<?xml version="1.0" standalone="no"?>
<!DOCTYPE svg PUBLIC "-//W3C//DTD SVG 20010904//EN"
 "http://www.w3.org/TR/2001/REC-SVG-20010904/DTD/svg10.dtd">
<svg version="1.0" xmlns="http://www.w3.org/2000/svg"
 width="880.000000pt" height="880.000000pt" viewBox="0 0 880.000000 880.000000"
 preserveAspectRatio="xMidYMid meet">
<metadata>
Created by potrace 1.14, written by Peter Selinger 2001-2017
</metadata>
<g transform="translate(0.000000,880.000000) scale(0.100000,-0.100000)"
fill="#000000" stroke="none">
<path d="M3967 8015 c-1 -1 -47 -5 -102 -9 -99 -7 -118 -9 -205 -21 -224 -31
-429 -78 -620 -141 -74 -25 -144 -49 -155 -54 -11 -5 -69 -30 -130 -56 -277
-118 -522 -261 -746 -436 -88 -69 -112 -89 -188 -157 -64 -58 -248 -241 -295
-295 -28 -33 -58 -66 -66 -75 -8 -9 -45 -54 -81 -101 -285 -367 -477 -747
-612 -1210 -30 -102 -86 -404 -102 -555 -30 -263 -24 -596 15 -864 25 -171 24
-169 65 -336 106 -430 295 -842 555 -1205 106 -149 160 -210 354 -408 185
-188 275 -267 434 -380 453 -324 941 -527 1485 -617 300 -50 730 -54 1042 -10
384 54 739 165 1081 339 1018 519 1708 1476 1879 2606 22 147 30 281 30 510 0
210 -5 291 -26 455 -131 1024 -730 1948 -1622 2502 -111 69 -443 243 -465 243
-4 0 -26 8 -48 19 -67 32 -303 111 -439 146 -181 48 -326 73 -578 101 -52 5
-454 13 -460 9z"/>
</g>
</svg>
